<?xml version="1.0" encoding="utf-8"?>
<!-- Generator: Adobe Illustrator 19.2.1, SVG Export Plug-In . SVG Version: 6.00 Build 0)  -->
<svg version="1.1" id="Layer_1" xmlns="http://www.w3.org/2000/svg" xmlns:xlink="http://www.w3.org/1999/xlink" x="0px" y="0px"
	 viewBox="0 0 841.9 595.3" style="enable-background:new 0 0 841.9 595.3;" xml:space="preserve">
<style type="text/css">
	.st0{fill:#FFFFFF;}
</style>
<g>
	<g>
		<path class="st0" d="M275.5,361.6c100.5,0,182-80.1,182-179.2S376,3.2,275.5,3.2S93.5,84,93.5,182.4
			C93.5,281.5,175,361.6,275.5,361.6z M422.4,576.6c1.4-45,28.1-85,70.3-113.1C442,421.3,364,394.6,276.2,394.6
			C123.7,394.6,0,475.4,0,575.9l0,0c0,9.1,7,16.2,16.2,16.2h408.3c-0.7-3.5-1.4-7-1.4-11.2C422.4,579.5,422.4,578,422.4,576.6z
			 M650,431.9c69.6,0,126.5-56.2,126.5-124.4c0-68.9-56.9-125.1-126.5-125.1s-126.5,56.2-126.5,125.1
			C523.6,375.7,579.8,431.9,650,431.9z M650,454.4c-106.1,0-191.9,56.2-192.6,125.8l0,0c0,6.3,4.9,11.2,11.2,11.2h361.9
			c6.3,0,11.2-4.9,11.2-11.2l0,0l0,0C841.9,510.6,756.2,454.4,650,454.4z"/>
	</g>
</g>
</svg>
