<?xml version="1.0" encoding="utf-8"?>
<!-- Generator: Adobe Illustrator 19.2.1, SVG Export Plug-In . SVG Version: 6.00 Build 0)  -->
<svg version="1.1" id="Layer_1" xmlns="http://www.w3.org/2000/svg" xmlns:xlink="http://www.w3.org/1999/xlink" x="0px" y="0px"
	 viewBox="0 0 40 40" style="enable-background:new 0 0 40 40;" xml:space="preserve">
<style type="text/css">
	.st0{fill:#E31C79;}
	.st1{fill:#FFFFFF;}
</style>
<g>
	<path class="st0" d="M39.5,40c0.3,0,0.5-0.2,0.5-0.5l0-39C40,0.2,39.7,0,39.5,0h-39C0.2,0,0,0.2,0,0.5l0,39C0,39.8,0.2,40,0.5,40
		H39.5z"/>
</g>
<g>
	<path class="st1" d="M29.6,13.8c0-5.3-4.3-9.6-9.6-9.6c-5.3,0-9.6,4.3-9.6,9.6c0,5.3,4.3,9.6,9.6,9.6
		C25.3,23.5,29.6,19.1,29.6,13.8z"/>
	<path class="st1" d="M34.6,35L34.6,35L34.6,35c0-5.4-6.6-9.7-14.6-9.7c-8.1,0-14.6,4.4-14.6,9.7h0c0,0.5,0.4,0.9,0.9,0.9h27.5
		C34.2,35.8,34.6,35.4,34.6,35L34.6,35L34.6,35z"/>
</g>
</svg>
