<svg width="326" height="83" viewBox="0 0 326 83" fill="none" xmlns="http://www.w3.org/2000/svg">
<path fill-rule="evenodd" clip-rule="evenodd" d="M259 38.0001L268.528 32.7765L270 29.0005L272 42.0001L267.7 70.9381L259 76.0001L257 44.0001L259 42.0001" fill="#FFBE9F"/>
<path fill-rule="evenodd" clip-rule="evenodd" d="M268.528 32.7171L270 28.9411C270 28.9411 271.631 23.1761 269.837 17.2261C268.042 11.2771 256.639 15.2991 256.639 15.2991C256.639 15.2991 254.451 16.1171 254.158 20.1321C254.158 20.1321 253.351 26.1831 254 28.9411C254.65 31.6981 257.927 41.8211 268.528 32.7171Z" fill="#FFBE9F"/>
<path fill-rule="evenodd" clip-rule="evenodd" d="M254.158 20.1316C254.158 20.1316 250.076 18.1366 252 11.9406C252 11.9406 250.723 10.5556 255.743 8.82363C255.743 8.82363 255.391 8.11363 258 7.94063C258 7.94063 269.846 4.21563 272 13.9406L273 12.9406C273 12.9406 273.93 14.8796 273 14.9406C273 14.9406 276.405 17.7256 275.349 22.9296C275.349 22.9296 274 31.9406 270 32.9406V23.9406L269 26.9406L268 25.9406C268 25.9406 265 19.9406 268 17.9406C268 17.9406 267.421 15.9856 262.804 16.7586C262.804 16.7586 258.447 18.6456 256 16.9406C256 16.9406 254.811 15.8866 254.158 20.1316Z" fill="#542A0E"/>
<path fill-rule="evenodd" clip-rule="evenodd" d="M252.052 11.5588C252.052 11.5588 256.68 10.2038 260.088 14.1718C260.088 14.1718 261.27 16.1898 263.879 16.0168C263.879 16.0168 260.26 16.7818 257.444 13.8228C254.627 10.8638 252.052 11.5588 252.052 11.5588Z" fill="#633217"/>
<path fill-rule="evenodd" clip-rule="evenodd" d="M255.013 23.4772C254.972 23.8042 255.15 24.1122 255.411 24.1642C255.672 24.2162 255.917 23.9922 255.959 23.6652C256 23.3382 255.822 23.0312 255.561 22.9782C255.3 22.9272 255.055 23.1502 255.013 23.4772Z" fill="black"/>
<path fill-rule="evenodd" clip-rule="evenodd" d="M260.013 24.4772C259.972 24.8042 260.15 25.1122 260.411 25.1642C260.672 25.2162 260.917 24.9922 260.959 24.6652C261 24.3382 260.822 24.0312 260.561 23.9782C260.3 23.9272 260.055 24.1502 260.013 24.4772Z" fill="black"/>
<path fill-rule="evenodd" clip-rule="evenodd" d="M257.594 24.4309C257.573 24.8069 257.51 25.1639 257.452 25.5179C257.398 25.8729 257.323 26.2209 257.278 26.5569C257.252 26.7209 257.24 26.8959 257.252 27.0209C257.262 27.0409 257.211 26.9529 257.192 26.9649C257.182 26.9609 257.195 26.9749 257.228 26.9719C257.283 26.9759 257.37 26.9709 257.45 26.9579C257.782 26.8969 258.133 26.7859 258.497 26.7059C258.219 26.9599 257.913 27.1639 257.552 27.3139C257.458 27.3489 257.369 27.3919 257.243 27.4009C257.186 27.4079 257.105 27.4079 257.012 27.3729C256.907 27.3509 256.803 27.1809 256.798 27.1129C256.741 26.8799 256.771 26.6889 256.785 26.4939C256.838 26.1139 256.935 25.7549 257.075 25.4129C257.216 25.0709 257.371 24.7369 257.594 24.4309Z" fill="black"/>
<path fill-rule="evenodd" clip-rule="evenodd" d="M259.632 29.3382C259.415 29.6282 259.132 29.8512 258.825 30.0412C258.52 30.2352 258.17 30.3642 257.794 30.4222C257.421 30.4692 257.005 30.4312 256.665 30.2222C256.321 30.0152 256.114 29.6762 256.018 29.3352C256.293 29.5712 256.54 29.7832 256.831 29.8752C257.121 29.9582 257.418 29.9742 257.726 29.9272C258.347 29.8472 258.964 29.5792 259.632 29.3382Z" fill="black"/>
<path fill-rule="evenodd" clip-rule="evenodd" d="M269.251 27.0818C269.251 27.0818 268.554 23.7778 270.893 23.6238C270.893 23.6238 273.453 23.0268 272.562 26.5898C272.562 26.5898 271.753 29.2998 269.347 29.1378L269.251 27.0818Z" fill="#FFBE9F"/>
<path fill-rule="evenodd" clip-rule="evenodd" d="M269.537 25.2531C269.83 24.8851 270.21 24.5911 270.674 24.4051C270.906 24.3111 271.179 24.2741 271.459 24.3261C271.745 24.3751 272.001 24.5731 272.152 24.7951C272.453 25.2291 272.567 25.7901 272.399 26.2881C272.242 26.7791 271.892 27.1571 271.476 27.3741C271.755 27.0041 271.973 26.6041 272.025 26.2001C272.078 25.8041 271.97 25.3991 271.745 25.0861C271.556 24.7631 271.195 24.7061 270.78 24.7741C270.37 24.8581 269.954 25.0481 269.537 25.2531Z" fill="#F6AB8A"/>
<path fill-rule="evenodd" clip-rule="evenodd" d="M46 67.4417C46 67.4417 32 62.2057 26.5 72.7767C26.5 72.7767 16 68.1327 8 79.0017L5 82.9527H55.5L46 67.4417Z" fill="#7AD1A8"/>
<path fill-rule="evenodd" clip-rule="evenodd" d="M21 82.8656C21 82.8656 21 78.5806 26.5 78.6686C26.5 78.6686 29 71.5856 36.8 73.8586C36.8 73.8586 43 61.9676 65.8 67.7376C65.8 67.7376 87.3 73.3346 93 82.9526L21 82.8656Z" fill="#9DDBB7"/>
<path fill-rule="evenodd" clip-rule="evenodd" d="M279.3 63.2536C279.3 63.2536 294.3 57.5236 305.3 70.5646C305.3 70.5646 314.8 71.0586 319.3 78.6656C320.1 80.0486 321.3 82.7156 321.3 82.7156H269L279.3 63.2536Z" fill="#7AD1A8"/>
<path fill-rule="evenodd" clip-rule="evenodd" d="M172 82.884C172 82.884 183.99 58.8196 210 74.899C210 74.899 220.6 60.258 235.7 69.308C235.7 69.308 243 74.689 248 82.941L172 82.884Z" fill="#9DDBB7"/>
<path fill-rule="evenodd" clip-rule="evenodd" d="M315.9 82.9075C315.9 82.9075 315 78.8565 309 79.6475C309 79.6475 306.2 74.2145 297.2 75.1025C297.2 75.1025 293.9 60.1845 268.7 68.8795C268.7 68.8795 251.4 70.1505 248 82.1055L315.9 82.9075Z" fill="#9DDBB7"/>
<path fill-rule="evenodd" clip-rule="evenodd" d="M232.836 58.6408C232.836 58.6408 235.513 48.1338 232.947 47.4838C230.271 46.8338 231.609 52.8998 229.936 52.2488C229.936 52.2488 226.255 45.1008 223.578 45.3178C221.124 45.4258 221.794 47.2668 221.794 47.2668C221.794 47.2668 221.124 46.2918 219.451 47.2668C217.778 48.1338 219.563 49.6498 219.563 49.6498C219.563 49.6498 218.67 48.8918 217.89 48.8918C217.108 48.8918 214.655 49.8668 217.22 52.1418C219.451 54.0908 225.474 63.0808 225.474 63.0808L232.836 58.6408Z" fill="#FFBE9F"/>
<path fill-rule="evenodd" clip-rule="evenodd" d="M229.76 52.3137C230 53.1527 230 53.9917 230 54.7377V54.9237L229.76 55.1107C229.6 55.2037 229.441 55.3897 229.281 55.4827C229.121 55.6687 228.962 55.7627 228.802 55.9497C228.642 56.1347 228.562 56.3217 228.403 56.5077C228.242 56.6947 228.163 56.9737 228.083 57.2537C227.923 56.6947 228.003 56.0427 228.242 55.4827C228.403 55.2037 228.562 55.0167 228.722 54.7377C228.882 54.5507 229.121 54.3647 229.361 54.1777L229.121 54.5507C229.361 53.8987 229.441 53.0597 229.76 52.3137Z" fill="#EC9F7F"/>
<path fill-rule="evenodd" clip-rule="evenodd" d="M270.971 36.2656L283.556 36.8466C283.556 36.8466 290.219 37.9956 294.662 49.7026L302.805 75.3106C302.805 75.3106 301.324 79.9096 298.363 81.3736L270.971 81.1636H253.943L249.5 45.9536C249.606 45.8486 251.597 42.1356 259 39.9406C259 39.9406 260.543 58.6776 270.971 36.2656Z" fill="white"/>
<path fill-rule="evenodd" clip-rule="evenodd" d="M271.183 36.0311L268.644 71.1489L264.52 82.8555H298.576C298.576 82.8555 308.517 79.7695 303.546 65.8291C300.373 56.9956 296.222 41.5911 288.501 36.9087C284.376 34.3542 279.433 34.3287 271.183 36.0311Z" fill="#FFBD00"/>
<path fill-rule="evenodd" clip-rule="evenodd" d="M248.231 45.9477C245.27 50.7617 245.27 68.5547 240.828 67.4037C239.242 66.9857 234.059 57.8787 234.059 57.8787L223.994 63.0077L233.742 82.9527L261.135 82.7437C257 51.9407 259 39.9407 259 39.9407C259 39.9407 251.51 40.6087 248.231 45.9477Z" fill="#FFBD00"/>
<path d="M272.5 70.5795L292.96 70.0855" stroke="#D7A102"/>
<path d="M281.97 53.9875L288.5 68.6155" stroke="#D7A102"/>
<path fill-rule="evenodd" clip-rule="evenodd" d="M272.028 56.0784C272.729 56.0784 273.297 56.6404 273.297 57.3324C273.297 58.0254 272.729 58.5874 272.028 58.5874C271.327 58.5874 270.758 58.0254 270.758 57.3324C270.758 56.6404 271.327 56.0784 272.028 56.0784Z" fill="white"/>
<path fill-rule="evenodd" clip-rule="evenodd" d="M271.605 62.9768C272.306 62.9768 272.874 63.5388 272.874 64.2308C272.874 64.9238 272.306 65.4858 271.605 65.4858C270.904 65.4858 270.336 64.9238 270.336 64.2308C270.336 63.5388 270.904 62.9768 271.605 62.9768Z" fill="white"/>
<path fill-rule="evenodd" clip-rule="evenodd" d="M268.913 74L269.23 82.885H254C254 82.885 257.913 75.986 268.913 74Z" fill="#FFBE9F"/>
<path d="M252.568 67.7854L250.347 81.6864" stroke="#D7A102"/>
<path fill-rule="evenodd" clip-rule="evenodd" d="M76.1 82.7347C76.1 82.7347 75.798 63.2137 91.077 62.2317C91.077 62.2317 110.743 61.1407 124.358 73.1367C124.358 73.1367 144.586 65.1087 153.1 82.9527L76.1 82.7347Z" fill="#7CD5AB"/>
<path d="M57.4002 65.2562C57.4002 65.2562 60.2002 64.9602 60.2002 57.7482C60.2002 50.5352 54.2002 45.3992 54.2002 45.3992" stroke="white" stroke-dasharray="3"/>
<path fill-rule="evenodd" clip-rule="evenodd" d="M69.2006 40.6565L67.6006 42.2365L68.4006 54.8835L78.9006 58.1425L84.5006 54.0925L82.9006 49.3495L78.1006 41.4465L69.2006 40.6565Z" fill="white"/>
<path fill-rule="evenodd" clip-rule="evenodd" d="M94.3998 54.5863L93.2998 51.0293L94.7998 54.4873C94.8998 54.5863 94.7998 54.6853 94.6998 54.6853C94.5998 54.7843 94.3998 54.6853 94.3998 54.5863Z" fill="black"/>
<path fill-rule="evenodd" clip-rule="evenodd" d="M66.7993 42.2366C66.7993 43.2246 66.9993 44.3116 67.0993 45.2996C67.2993 46.2876 67.6993 47.2756 68.1993 47.9666C68.4993 48.3626 68.8993 48.5596 69.3993 48.7576C69.8993 48.9556 70.3993 48.8566 70.7993 48.6586C71.7993 48.4616 72.5993 47.7696 73.4993 47.2756L73.5993 47.1766L73.7993 47.2756C74.2993 47.5716 75.0993 47.4726 75.6993 47.3746C76.3993 47.2756 76.7993 46.6826 77.0993 45.9916C77.5993 44.7076 77.4993 43.1266 76.8993 41.8416C77.5993 43.1266 77.8993 44.6076 77.3993 46.0906C77.2993 46.3856 77.0993 46.7816 76.7993 47.0786C76.5993 47.2756 76.5993 47.3746 76.2993 47.4726C76.0993 47.5716 75.8993 47.6716 75.6993 47.6716C74.9993 47.8686 74.1993 47.9666 73.3993 47.5716H73.5993C72.7993 48.1646 71.8993 48.7576 70.8993 49.0536C70.3993 49.2516 69.8993 49.2516 69.2993 49.0536C68.6993 48.8566 68.2993 48.5596 67.8993 48.1646C67.2993 47.2756 66.8993 46.2876 66.7993 45.2996C66.7993 44.3116 66.6993 43.2246 66.7993 42.2366Z" fill="black"/>
<path fill-rule="evenodd" clip-rule="evenodd" d="M76.2 41.052C76.2 41.052 75.3 45.003 72.5 46.189H74.1C74.1 46.189 76.2 45.003 76.2 41.052Z" fill="#BEBEBE"/>
<path fill-rule="evenodd" clip-rule="evenodd" d="M62.7999 8.84454C60.1999 9.63454 58.6999 12.0055 57.1999 15.1675C55.5999 18.5265 56.8999 24.9485 50.3999 28.3065C43.8999 31.6655 34.6999 35.6175 37.6999 48.0655C37.6999 48.0655 41.1999 56.6615 49.8999 54.2905C58.5999 51.9195 67.1999 59.6255 77.0999 59.4275C84.2999 59.3285 89.4999 62.8855 92.6999 59.6255C94.4999 57.8465 96.2999 53.4005 93.7999 49.5485C92.7999 48.0655 89.4999 46.2875 90.2999 42.9285C90.9999 39.7675 91.0999 37.3965 87.0999 35.0255C82.4999 32.2585 84.4999 27.5165 84.4999 27.5165C84.4999 27.5165 86.7999 21.0945 83.4999 17.2415C83.2999 17.2415 77.9999 4.29954 62.7999 8.84454Z" fill="#542A0E"/>
<path fill-rule="evenodd" clip-rule="evenodd" d="M76.7996 28.9983C78.5676 28.9983 79.9996 30.4143 79.9996 32.1603C79.9996 33.9063 78.5676 35.3213 76.7996 35.3213C75.0326 35.3213 73.5996 33.9063 73.5996 32.1603C73.5996 30.4143 75.0326 28.9983 76.7996 28.9983Z" stroke="white"/>
<path fill-rule="evenodd" clip-rule="evenodd" d="M80.8 15.5623C80.8 15.5623 72.8 24.2563 64 21.0953C64 21.0953 61.3 18.3293 60 21.0953C58.7 23.8613 62.1 26.3313 62.9 26.3313C62.9 26.3313 64.9 32.9503 60.5 39.8663L73.4 43.0273L75 33.4443C75 33.4443 80.1 33.7403 81.7 25.0463C81.6 25.0463 82.9 19.9093 80.8 15.5623Z" fill="#FFC2A3"/>
<path fill-rule="evenodd" clip-rule="evenodd" d="M60.1006 21.6879C60.1006 21.6879 63.2006 19.4159 64.0006 23.9599C63.9006 23.9599 62.4006 20.8969 60.1006 21.6879Z" fill="#FAAF8E"/>
<path fill-rule="evenodd" clip-rule="evenodd" d="M67.2002 29.0974C67.2002 29.0974 72.4002 33.4444 74.8002 33.4444L74.3502 35.6184C74.4502 35.6184 69.6002 33.8394 67.2002 29.0974Z" fill="#F4B193"/>
<path fill-rule="evenodd" clip-rule="evenodd" d="M63.1006 25.8372C65.3096 25.8372 67.1006 27.6062 67.1006 29.7892C67.1006 31.9712 65.3096 33.7402 63.1006 33.7402C60.8916 33.7402 59.1006 31.9712 59.1006 29.7892C59.1006 27.6062 60.8916 25.8372 63.1006 25.8372Z" stroke="white"/>
<path fill-rule="evenodd" clip-rule="evenodd" d="M116.6 34.0369C115 30.0849 112.6 34.2349 112.6 36.4079C112.6 38.5819 112.8 38.4829 111 41.1509C109.4 43.5219 107.8 43.5219 107.8 43.5219C107.8 43.5219 107 43.4219 107 40.4589C107 37.2969 104.1 38.2859 103.8 38.8779C102.8 40.5579 104.7 40.7549 103.8 45.2009C103.3 47.4729 103.6 49.4499 103.8 49.9429C101.2 53.6979 96.8001 59.3289 93.2001 62.4909C87.1001 67.8259 88.6001 60.3169 88.6001 60.3169C86.3001 45.2009 79.8001 42.8289 79.8001 42.8289L77.4001 61.1069C77.4001 61.1069 75.6001 86.0029 93.5001 76.2229C100.7 72.2709 114.4 45.9919 114.4 45.9919C114.3 46.0899 114.3 46.0899 114.2 46.1889C116.3 41.7439 117.7 36.6059 116.6 34.0369Z" fill="#FFC2A3"/>
<path fill-rule="evenodd" clip-rule="evenodd" d="M78.0002 61.1068L77.2002 64.2688L77.5002 67.7258C77.5002 67.7258 82.9002 63.4778 88.5002 60.2178L78.0002 61.1068Z" fill="#FAAF8E"/>
<path fill-rule="evenodd" clip-rule="evenodd" d="M117 37.2971L117.5 35.8151C117.8 35.2221 117.9 34.4321 117.1 34.2341L109.6 31.9621C109 31.7651 108.5 32.0611 108.2 32.6541L100.9 48.3621C100.6 48.9551 101 49.6471 101.6 49.8441L105.4 51.0291L109.3 52.3141C109.7 52.4131 110.1 52.2151 110.3 51.9191L115.4 40.6561L117 37.2971Z" fill="black"/>
<path fill-rule="evenodd" clip-rule="evenodd" d="M116.1 37.5934L116.8 36.3094C117.1 35.7164 116.9 35.0254 116.2 34.8274L109.7 32.8514C109.2 32.7524 108.7 32.9504 108.5 33.4444L101.9 47.8684C101.6 48.4614 102 49.0534 102.5 49.2514L105.8 50.3384L109.8 51.6224L114.7 40.7554L116.1 37.5934Z" fill="#FFBC00"/>
<path fill-rule="evenodd" clip-rule="evenodd" d="M111.799 42.8293L108.699 38.7793C108.599 38.5813 108.299 38.6803 108.199 38.8783L106.199 43.5213C106.099 43.7193 106.299 43.9163 106.499 43.9163L111.599 43.2253C111.899 43.3233 111.999 43.0273 111.799 42.8293Z" fill="white"/>
<path fill-rule="evenodd" clip-rule="evenodd" d="M117.4 41.348C117.5 40.854 117.1 40.459 116.6 40.459C114.6 40.557 110 40.952 110 42.632C110 44.806 116.7 44.115 116.7 44.115L117.4 41.348Z" fill="#FFC2A3"/>
<path fill-rule="evenodd" clip-rule="evenodd" d="M116.1 43.3235C116.1 43.3235 109.3 43.3235 109.3 45.4975C109.3 47.2755 113.3 47.1775 114.8 46.9785C115.1 46.9785 115.4 46.6825 115.5 46.3865L116.1 43.3235Z" fill="#FFC2A3"/>
<path fill-rule="evenodd" clip-rule="evenodd" d="M114.6 46.9788C114.6 46.9788 107.8 46.9788 107.8 48.6588C107.8 50.0418 111.8 49.9428 113.3 49.8438C113.6 49.8438 113.9 49.6468 114 49.2508L114.6 46.9788Z" fill="#FFC2A3"/>
<path fill-rule="evenodd" clip-rule="evenodd" d="M36.2998 51.5237C36.2998 51.5237 37.8998 50.7337 41.8998 51.5237L40.2998 55.4757C40.3998 55.4757 37.0998 53.8947 36.2998 51.5237Z" fill="#E83968"/>
<path fill-rule="evenodd" clip-rule="evenodd" d="M111.799 42.0393C111.799 42.0393 111.799 41.2493 110.999 42.0393C110.199 42.8293 111.799 42.8293 111.799 42.8293V42.0393Z" fill="white"/>
<path fill-rule="evenodd" clip-rule="evenodd" d="M111 45.2005C111 45.2005 111 44.4105 110.2 45.2005C109.4 45.9915 111 45.9915 111 45.9915V45.2005Z" fill="white"/>
<path fill-rule="evenodd" clip-rule="evenodd" d="M109.4 48.3625C109.4 48.3625 109.4 47.5715 108.6 48.3625C107.8 49.1525 109.4 49.1525 109.4 49.1525V48.3625Z" fill="white"/>
<path fill-rule="evenodd" clip-rule="evenodd" d="M58.9004 37.9889C54.1004 37.1979 46.8004 36.4079 36.4004 51.5239C36.4004 51.5239 47.7004 49.9429 54.1004 58.6369L40.4081 82.9999H76.4704L81.3004 64.2689L84.5004 47.5719C84.5004 47.5719 82.1004 42.8289 79.7004 42.0389C77.3004 41.2489 72.5004 40.4589 72.5004 40.4589C72.5004 40.4589 70.1004 42.8289 63.7004 37.9889C63.7004 37.9889 63.7004 38.7789 58.9004 37.9889Z" fill="#F1567B"/>
<path fill-rule="evenodd" clip-rule="evenodd" d="M69.5996 49.635C70.1516 49.635 70.5996 50.082 70.5996 50.635C70.5996 51.187 70.1516 51.635 69.5996 51.635C69.0476 51.635 68.5996 51.187 68.5996 50.635C68.5996 50.082 69.0476 49.635 69.5996 49.635Z" fill="white"/>
<path fill-rule="evenodd" clip-rule="evenodd" d="M69.7998 54.4758C70.3518 54.4758 70.7998 54.9228 70.7998 55.4758C70.7998 56.0278 70.3518 56.4758 69.7998 56.4758C69.2478 56.4758 68.7998 56.0278 68.7998 55.4758C68.7998 54.9228 69.2478 54.4758 69.7998 54.4758Z" fill="white"/>
<path fill-rule="evenodd" clip-rule="evenodd" d="M69.9004 59.218C70.4524 59.218 70.9004 59.665 70.9004 60.218C70.9004 60.77 70.4524 61.218 69.9004 61.218C69.3484 61.218 68.9004 60.77 68.9004 60.218C68.9004 59.665 69.3484 59.218 69.9004 59.218Z" fill="white"/>
<path fill-rule="evenodd" clip-rule="evenodd" d="M77.4004 61.8978L90.3004 60.3168C90.3004 60.3168 91.1004 45.9918 79.8004 42.0398L77.4004 61.8978Z" fill="#F1567B"/>
<path fill-rule="evenodd" clip-rule="evenodd" d="M83.1004 60.0199L78.9004 73.6539L82.1004 59.7239L83.1004 60.0199Z" fill="#E33966"/>
<path fill-rule="evenodd" clip-rule="evenodd" d="M61.3002 35.6179L59.7002 37.9889C59.7002 37.9889 62.1002 40.3599 68.5002 44.3119L70.9002 41.9409L72.5002 44.3119L75.7002 41.1509L74.1002 37.9889L70.9002 40.4589L61.3002 35.6179Z" fill="white"/>
<path fill-rule="evenodd" clip-rule="evenodd" d="M54.2999 58.6367L50.6999 68.4187L75.7999 76.3217C75.7999 76.3217 82.4999 78.4087 89.3999 82.7547C89.3999 82.7547 64.0009 84 46.8999 80.3837C46.7999 80.3837 29.3999 74.6417 41.9999 51.5237C41.9999 51.5237 51.6999 53.1047 54.2999 58.6367Z" fill="#FFC2A3"/>
<path fill-rule="evenodd" clip-rule="evenodd" d="M57.8002 52.6106L51.2002 67.0346L56.8002 52.2146L57.8002 52.6106Z" fill="#E33966"/>
<path fill-rule="evenodd" clip-rule="evenodd" d="M71.1004 45.5959C71.7004 47.9669 72.0004 50.3379 72.2004 52.8079C72.4004 55.2779 72.5004 57.6489 72.3004 60.1189C72.2004 61.3049 72.0004 62.5889 71.7004 63.7749C71.4004 64.9599 70.9004 66.1459 70.0004 67.2329C69.6004 67.7259 68.9004 68.1209 68.3004 68.3189C67.8004 68.5169 67.2004 68.8129 67.0004 69.2079C66.8004 69.6039 67.2004 70.0969 67.6004 70.5909C67.9004 71.0849 68.4004 71.5789 68.4004 72.2709C68.3004 71.6779 67.8004 71.2829 67.4004 70.7889C67.2004 70.5909 67.0004 70.3939 66.8004 70.0969C66.6004 69.8009 66.4004 69.4059 66.6004 69.0109C66.7004 68.6159 67.0004 68.3189 67.3004 68.1209C67.6004 67.9239 67.9004 67.7259 68.1004 67.6269C68.7004 67.3309 69.1004 67.1329 69.4004 66.6399C70.1004 65.8489 70.5004 64.6629 70.8004 63.5759C71.1004 62.3909 71.2004 61.2049 71.4004 60.0199C71.6004 57.6489 71.6004 55.1789 71.6004 52.8079C71.5004 50.4369 71.3004 47.9669 71.1004 45.5959Z" fill="#E33966"/>
<path fill-rule="evenodd" clip-rule="evenodd" d="M42 51.5237C42 51.5237 52.5 53.1047 54.1 58.6367L52.9 62.5887C52.8 62.6877 51.6 54.6847 42 51.5237Z" fill="#FAAF8E"/>
<path fill-rule="evenodd" clip-rule="evenodd" d="M47 68C49.9 68.396 52.8 69.087 55.6 69.878C58.4 70.668 61.2 71.557 64 72.644C61.1 72.249 58.2 71.557 55.4 70.767C52.6 70.075 49.8 69.186 47 68Z" fill="#FAAF8E"/>
<path fill-rule="evenodd" clip-rule="evenodd" d="M76.5 22.6697C76.776 22.6697 77 22.8937 77 23.1697C77 23.4457 76.776 23.6697 76.5 23.6697C76.224 23.6697 76 23.4457 76 23.1697C76 22.8937 76.224 22.6697 76.5 22.6697Z" fill="black"/>
<path fill-rule="evenodd" clip-rule="evenodd" d="M81.5 22.6697C81.776 22.6697 82 22.8937 82 23.1697C82 23.4457 81.776 23.6697 81.5 23.6697C81.224 23.6697 81 23.4457 81 23.1697C81 22.8937 81.224 22.6697 81.5 22.6697Z" fill="black"/>
<path fill-rule="evenodd" clip-rule="evenodd" d="M79.1004 23.5647C79.3004 23.9597 79.4004 24.3557 79.4004 24.8487C79.5004 25.2447 79.5004 25.7377 79.5004 26.1337C79.5004 26.3307 79.5004 26.6277 79.3004 26.8247C79.3004 26.9237 79.1004 27.0227 79.0004 27.0227H78.7004C78.6004 27.0227 78.5004 26.9237 78.4004 26.8247C78.0004 26.5287 77.7004 26.2317 77.4004 25.9357C77.8004 26.1337 78.2004 26.3307 78.5004 26.5287C78.6004 26.5287 78.7004 26.6277 78.8004 26.6277H78.9004C78.9004 26.6277 78.8004 26.7267 78.8004 26.6277C78.9004 26.4297 78.9004 26.2317 78.9004 26.0347V24.7507C79.0004 24.3557 79.0004 23.9597 79.1004 23.5647Z" fill="black"/>
<path fill-rule="evenodd" clip-rule="evenodd" d="M76.5 27.8127C77 28.1087 77.4 28.5047 77.8 28.7017C78 28.8007 78.2 28.8997 78.5 28.8997C78.7 28.8997 79 28.8007 79.3 28.7017C79.2 28.9987 78.9 29.1957 78.6 29.2947C78.3 29.3937 77.9 29.2947 77.7 29.1957C77.4 29.0977 77.2 28.8997 77 28.6037C76.7 28.4057 76.5 28.1087 76.5 27.8127Z" fill="black"/>
<path fill-rule="evenodd" clip-rule="evenodd" d="M77.8 21.8849C77.3 21.7859 77 21.7859 76.6 21.7859C76.3 21.7859 75.9 21.9839 75.5 22.1809C75.6 21.9839 75.7 21.7859 75.9 21.5889C76.1 21.3909 76.3 21.2929 76.6 21.2929C77.1 21.1939 77.5 21.4899 77.8 21.8849Z" fill="black"/>
<path fill-rule="evenodd" clip-rule="evenodd" d="M82.5998 21.8849C82.0998 21.7859 81.7998 21.7859 81.3998 21.7859C81.0998 21.7859 80.6998 21.9839 80.2998 22.1809C80.3998 21.9839 80.4998 21.7859 80.6998 21.5889C80.8998 21.3909 81.0998 21.2929 81.3998 21.2929C81.8998 21.1939 82.3998 21.4899 82.5998 21.8849Z" fill="black"/>
<path fill-rule="evenodd" clip-rule="evenodd" d="M130 82.9523C130 82.9523 138.366 69.1533 154.831 75.4583C154.831 75.4583 164.708 62.8973 174.587 74.2983C178.331 78.6192 179.147 82.0812 184.655 82.0812C187.959 82.0812 187.371 82.9004 177.88 82.9074C168.389 82.9144 130 82.9523 130 82.9523Z" fill="#9DDBB7"/>
<path fill-rule="evenodd" clip-rule="evenodd" d="M177.336 37.7307C177.336 37.7307 165.523 36.7997 161.528 37.9847L157.703 40.1017L153.709 54.7467C153.709 54.7467 151.159 73.3707 166.287 80.6507C166.287 80.6507 181.416 81.3277 188.47 67.3597C188.47 67.3597 192.974 56.7777 194.079 50.1747C193.994 50.1747 190 42.0477 177.336 37.7307Z" fill="#D5D5D5"/>
<path fill-rule="evenodd" clip-rule="evenodd" d="M161.782 39.1697L158.213 41.2017L154.473 54.9997C154.473 54.9997 152.009 72.5237 166.287 79.3807C166.287 79.3807 180.48 80.0577 187.11 66.8517C187.11 66.8517 191.359 56.8627 192.379 50.6827C192.379 50.6827 188.724 43.0637 176.656 38.9157C176.656 38.9157 165.522 38.0697 161.782 39.1697Z" fill="#BBBABA"/>
<path fill-rule="evenodd" clip-rule="evenodd" d="M166.968 79.3812L176.402 38.9162C174.532 38.7472 165.183 38.1542 161.868 39.1702L158.299 41.2012L154.559 55.0002C154.559 55.0002 152.095 72.5242 166.373 79.3812H166.968Z" fill="#C7C7C7"/>
<path fill-rule="evenodd" clip-rule="evenodd" d="M259 40.9407L258.064 35.9497L259 40.9407Z" fill="#FFBE9F"/>
<path fill-rule="evenodd" clip-rule="evenodd" d="M254 21.258C254.195 21.09 254.426 20.996 254.667 20.93C254.907 20.861 255.164 20.847 255.423 20.883C255.678 20.928 255.941 21.021 256.145 21.202C256.349 21.385 256.48 21.63 256.5 21.883C256.294 21.727 256.124 21.603 255.936 21.525C255.742 21.459 255.553 21.404 255.348 21.377C254.936 21.308 254.499 21.315 254 21.258Z" fill="black"/>
<path fill-rule="evenodd" clip-rule="evenodd" d="M259 22.258C259.24 22.09 259.51 21.997 259.787 21.931C260.065 21.86 260.355 21.849 260.648 21.877C260.937 21.919 261.238 21.987 261.489 22.171C261.742 22.343 261.942 22.596 262 22.883C261.539 22.53 261.1 22.427 260.592 22.374C260.091 22.308 259.571 22.32 259 22.258Z" fill="black"/>
<path fill-rule="evenodd" clip-rule="evenodd" d="M259 35.9407C259 35.9407 263 36.9407 267 32.9407C267 32.9407 266 35.9407 259 37.9407V35.9407Z" fill="#F4B193"/>
<path fill-rule="evenodd" clip-rule="evenodd" d="M146.154 18.2296V18.2291C146.154 16.9777 145.448 15.8915 144.413 15.3475L136.036 11.5456C135.981 11.5162 135.919 11.5 135.852 11.5C135.633 11.5 135.455 11.6776 135.455 11.8964V14.126C135.455 14.4228 135.631 14.6794 135.884 14.7961L142.697 17.6257C142.932 17.7253 143.097 17.9578 143.097 18.2296V18.2306C143.097 18.5014 142.932 18.7339 142.697 18.8335L135.884 21.6635C135.631 21.7803 135.455 22.0364 135.455 22.3337V24.5633C135.455 24.7816 135.633 24.9597 135.852 24.9597C135.919 24.9597 135.981 24.943 136.036 24.9135L144.413 21.1117C145.448 20.5681 146.154 19.482 146.154 18.2306V18.2296Z" fill="#FFBF00"/>
<path fill-rule="evenodd" clip-rule="evenodd" d="M139.534 8.67352C134.206 8.67352 129.886 12.9522 129.886 18.2302C129.886 23.5063 134.206 27.7855 139.534 27.7855C144.861 27.7855 149.182 23.5063 149.182 18.2302C149.182 12.9522 144.861 8.67352 139.534 8.67352ZM151.068 18.2302C151.068 24.5997 145.904 29.7639 139.534 29.7639C133.164 29.7639 128 24.5997 128 18.2302C128 11.8593 133.164 6.69556 139.534 6.69556C145.904 6.69556 151.068 11.8593 151.068 18.2302Z" fill="#FFBF00"/>
<path fill-rule="evenodd" clip-rule="evenodd" d="M175.223 24.9518C174.948 24.9518 174.726 24.7291 174.726 24.4538V12.0052C174.726 11.731 174.948 11.5078 175.223 11.5078H178.059C178.335 11.5078 178.557 11.731 178.557 12.0052V24.4538C178.557 24.7291 178.335 24.9518 178.059 24.9518H175.223Z" fill="#FFBF00"/>
<path fill-rule="evenodd" clip-rule="evenodd" d="M163.363 24.9518H163.364C164.935 24.9518 166.3 24.0639 166.984 22.7629L171.762 12.2373C171.798 12.1681 171.819 12.0891 171.819 12.0052C171.819 11.731 171.596 11.5078 171.322 11.5078H168.519C168.146 11.5078 167.824 11.7286 167.677 12.0465L164.122 20.6073C163.997 20.9022 163.705 21.1092 163.364 21.1092H163.362C163.021 21.1092 162.729 20.9022 162.604 20.6073L159.049 12.0465C158.901 11.7286 158.58 11.5078 158.206 11.5078H155.404C155.129 11.5078 154.906 11.731 154.906 12.0052C154.906 12.0891 154.927 12.1681 154.964 12.2373L159.741 22.7629C160.425 24.0639 161.79 24.9518 163.362 24.9518H163.363Z" fill="#FFBF00"/>
<path fill-rule="evenodd" clip-rule="evenodd" d="M178.938 6.29732C178.938 7.56592 177.909 8.59415 176.641 8.59415C175.372 8.59415 174.344 7.56592 174.344 6.29732C174.344 5.02872 175.372 4 176.641 4C177.909 4 178.938 5.02872 178.938 6.29732Z" fill="#FFBF00"/>
<mask id="mask0" mask-type="alpha" maskUnits="userSpaceOnUse" x="181" y="11" width="16" height="14">
<path fill-rule="evenodd" clip-rule="evenodd" d="M181.984 11.5078H196.246V24.9518H181.984V11.5078Z" fill="white"/>
</mask>
<g mask="url(#mask0)">
<path fill-rule="evenodd" clip-rule="evenodd" d="M189.115 24.9518C193.183 24.9518 196.246 22.3925 196.246 19.2352V12.0052C196.246 11.731 196.023 11.5078 195.748 11.5078H192.91C192.635 11.5078 192.413 11.731 192.413 12.0052L192.41 18.5622C192.41 19.974 190.934 21.1185 189.115 21.1185C187.296 21.1185 185.821 19.974 185.821 18.5622L185.818 12.0052C185.818 11.731 185.595 11.5078 185.32 11.5078H182.482C182.207 11.5078 181.984 11.731 181.984 12.0052V19.2352C181.984 22.3925 185.047 24.9518 189.115 24.9518Z" fill="#FFBF00"/>
</g>
<circle cx="172" cy="58" r="9" fill="#A4A4A4"/>
<path d="M168.808 55.5592L169.217 53.7246C169.486 52.5201 170.68 51.7486 171.912 52.0808L174.054 52.6585C175.285 52.9913 176.032 54.2266 175.75 55.4876L175.353 57.265" stroke="white" stroke-width="0.756"/>
<path d="M174.102 63.7986L166.924 62.035C166.345 61.8931 165.99 61.3079 166.133 60.7291L167.137 56.6426C167.279 56.0633 167.864 55.7089 168.443 55.8513L175.621 57.6145C176.201 57.7569 176.555 58.3421 176.413 58.9209L175.409 63.0074C175.266 63.5867 174.682 63.941 174.102 63.7986" stroke="white" stroke-width="0.756"/>
<path fill-rule="evenodd" clip-rule="evenodd" d="M171.659 58.257C172.166 58.3819 172.479 58.8892 172.356 59.3906C172.233 59.8914 171.721 60.1962 171.213 60.0713C170.704 59.9464 170.393 59.4391 170.516 58.9383C170.639 58.4374 171.15 58.1316 171.659 58.257Z" fill="white"/>
<path fill-rule="evenodd" clip-rule="evenodd" d="M170.925 59.6048L171.683 59.7912L171.237 61.6056L170.48 61.4191L170.925 59.6048Z" fill="white"/>
</svg>
